<svg width="250" height="250" viewBox="0 0 250 250" fill="none" xmlns="http://www.w3.org/2000/svg">
<g id="LogoMark">
<path id="Vector" d="M125.157 189.51C154.616 189.51 178.497 165.629 178.497 136.17C178.497 106.711 154.616 82.83 125.157 82.83C95.6985 82.83 71.8174 106.711 71.8174 136.17C71.8174 165.629 95.6985 189.51 125.157 189.51Z" fill="white"/>
<g id="Group">
<path id="Vector_2" d="M30.665 192.217C23.2325 187.87 16.7675 182.027 11.6825 175.06C0.174963 158.872 -3.05254 138.175 2.98996 119.225L25.96 47.2375L41.0325 0H208.562L223.622 47.2375L246.582 119.225C252.625 138.175 249.397 158.882 237.89 175.06C232.805 182.027 226.35 187.872 218.917 192.217L124.78 248.607L30.665 192.217ZM93.615 100.003C83.715 110.52 78.5225 124.655 79.2375 139.115C80.64 164.695 99.635 185.512 124.79 185.512C149.945 185.512 168.94 164.705 170.342 139.115C171.06 124.655 165.865 110.523 155.977 100.003C153.14 97 149.902 94.41 146.36 92.3125C140.34 88.6975 133.45 86.7975 126.44 86.83C125.342 86.84 124.245 86.84 123.157 86.83C116.137 86.7975 109.247 88.6975 103.24 92.3125C100.035 94.2125 97.0775 96.5175 94.4375 99.1725C94.165 99.445 93.8825 99.73 93.6225 100.012L93.6125 100.003H93.615Z" fill="#FFBB00"/>
<path id="Vector_3" d="M152.73 116.453C152.73 121.04 141.06 124.753 124.792 124.753C108.525 124.753 96.855 121.028 96.855 116.453C96.855 109.758 105.44 100.015 124.792 100.015C144.145 100.015 152.73 109.748 152.73 116.453Z" fill="#212123"/>
</g>
</g>
</svg>
